<svg width="169" height="158" viewBox="0 0 169 158" fill="none" xmlns="http://www.w3.org/2000/svg">
<path d="M59.4597 134.515C59.3075 134.8 59.1082 135.077 58.8618 135.346C57.9856 134.848 57.3493 134.508 56.9531 134.328C56.5445 134.166 56.2034 134.183 55.93 134.381C55.6441 134.596 55.2831 135.006 54.8471 135.612L46.1586 147.692C45.6354 148.419 45.305 148.97 45.1674 149.344C45.0297 149.718 45.1116 150.079 45.413 150.428C45.6847 150.781 46.1939 151.278 46.9407 151.921C46.7885 152.205 46.5892 152.482 46.3428 152.752C45.8925 152.428 45.5091 152.139 45.1925 151.885C44.8461 151.636 44.4997 151.387 44.1534 151.138C43.807 150.888 43.3976 150.581 42.9251 150.215C42.4402 149.866 41.8254 149.424 41.0807 148.888C39.7125 147.904 38.4309 146.982 37.2359 146.123C36.0285 145.28 35.0264 144.573 34.2298 144C33.4207 143.444 32.9468 143.116 32.8083 143.017C33.1999 142.326 33.5953 141.612 33.9945 140.874C34.3764 140.124 34.7808 139.324 35.2077 138.475C35.527 138.652 35.8128 138.858 36.065 139.092C35.8991 139.761 35.8114 140.394 35.802 140.992C35.7926 141.589 35.8604 142.098 36.0053 142.518C36.16 142.997 36.4275 143.465 36.8079 143.923C37.171 144.368 37.6903 144.833 38.3657 145.319L41.7688 147.767L46.8699 140.675L45.4411 139.647C44.6098 139.049 43.9403 138.646 43.4326 138.439C42.9124 138.249 42.4114 138.269 41.9295 138.501C41.4352 138.75 40.8222 139.255 40.0906 140.016C39.7415 139.844 39.4471 139.632 39.2073 139.381C39.9721 138.354 40.5375 137.605 40.9036 137.132C41.2524 136.647 41.514 136.284 41.6884 136.041C41.8877 135.764 42.1929 135.34 42.6039 134.768C42.9852 134.202 43.4849 133.471 44.1028 132.575C44.4 132.71 44.6944 132.921 44.9861 133.21C44.4298 134.203 44.1123 134.973 44.0336 135.521C43.955 136.069 44.0861 136.544 44.427 136.947C44.7506 137.337 45.2847 137.8 46.0294 138.336L47.692 139.532L51.7467 133.895C52.1702 133.306 52.5128 132.829 52.7743 132.466C53.0062 132.107 53.1508 131.869 53.2082 131.753L49.6492 129.193C48.7833 128.57 48.0407 128.141 47.4215 127.906C46.7725 127.676 46.1689 127.583 45.6108 127.629C45.2313 127.645 44.7089 127.768 44.0435 127.999C43.3657 128.247 42.6553 128.577 41.9124 128.989C41.6104 128.824 41.342 128.631 41.1071 128.41C41.9779 127.564 42.7542 126.796 43.436 126.104C44.1177 125.411 44.7075 124.811 45.2051 124.302C45.9845 124.862 46.8331 125.472 47.751 126.133C48.6689 126.793 49.5867 127.453 50.5046 128.113C51.4101 128.791 52.2438 129.404 53.0058 129.952C53.7505 130.487 54.348 130.917 54.7983 131.241C55.6123 131.827 56.2853 132.298 56.8173 132.654C57.3195 133.015 57.7698 133.339 58.1681 133.626C58.5616 133.882 58.9921 134.179 59.4597 134.515Z" fill="white"/>
<path d="M26.7441 115.807L27.0274 116.595L32.619 113.825C33.2116 113.532 33.6705 113.281 33.9957 113.072C34.3209 112.863 34.522 112.645 34.5992 112.416C34.6669 112.168 34.6491 111.844 34.5456 111.443C34.4136 111.032 34.2106 110.478 33.9365 109.78C34.214 109.571 34.5199 109.42 34.8541 109.326C35.0435 109.708 35.2612 110.172 35.5072 110.716C35.7723 111.252 36.0375 111.787 36.3026 112.322C36.5486 112.867 36.7616 113.321 36.9415 113.684C37.1119 114.028 37.344 114.473 37.6377 115.018C37.9123 115.572 38.1869 116.127 38.4615 116.681C38.7552 117.226 38.9967 117.689 39.1861 118.072C38.9278 118.271 38.6219 118.423 38.2685 118.526C37.7375 117.647 37.3344 117.025 37.0591 116.661C36.7646 116.307 36.4504 116.153 36.1163 116.2C35.7631 116.256 35.2424 116.454 34.5542 116.795L21.1915 123.414C20.4077 123.802 19.8722 124.139 19.5849 124.424C19.2881 124.69 19.1818 125.052 19.2659 125.51C19.3501 125.968 19.586 126.661 19.9737 127.588C19.7153 127.787 19.4095 127.939 19.0561 128.042C18.8762 127.679 18.6537 127.206 18.3888 126.623C18.0953 126.031 17.8208 125.452 17.5653 124.888C17.2812 124.315 17.0729 123.894 16.9403 123.627C16.7699 123.283 16.5521 122.843 16.287 122.308C15.9933 121.763 15.7043 121.227 15.4201 120.702C15.1263 120.157 14.9037 119.731 14.7522 119.425C14.1557 118.221 13.7643 117.022 13.5779 115.829C13.3822 114.617 13.5008 113.51 13.9339 112.51C14.3384 111.5 15.1619 110.688 16.4045 110.072C17.628 109.466 18.9023 109.299 20.2274 109.571C21.5431 109.824 22.8328 110.626 24.0967 111.976L24.1827 111.933C24.2701 111.533 24.4914 111.019 24.8468 110.39L27.7141 105.22C28.1752 104.373 28.526 103.687 28.7665 103.164C28.9975 102.621 29.1424 102.144 29.2012 101.734C29.2409 101.334 29.1995 100.914 29.0772 100.474C28.9548 100.035 28.7708 99.4952 28.5251 98.8551C28.8026 98.6462 29.1084 98.4947 29.4427 98.4006C29.6226 98.7638 29.8356 99.2178 30.0816 99.7625C30.3467 100.298 30.6024 100.814 30.8486 101.311C31.0756 101.817 31.2649 102.224 31.4164 102.53C31.5679 102.835 31.71 103.098 31.8428 103.318C31.9564 103.548 32.089 103.815 32.2405 104.121L27.0397 113.304C26.7037 113.875 26.5303 114.318 26.5195 114.632C26.4897 114.957 26.5645 115.348 26.7441 115.807ZM25.8517 117.177C25.7668 116.91 25.6866 116.676 25.611 116.475C25.5354 116.275 25.4551 116.088 25.3698 115.916C24.6313 114.425 23.6666 113.439 22.4758 112.957C21.2756 112.457 19.9299 112.576 18.4388 113.314C17.0815 113.986 16.229 114.885 15.8813 116.009C15.5242 117.115 15.7101 118.403 16.4392 119.875C16.5339 120.067 16.6618 120.301 16.823 120.578C16.9747 120.836 17.1454 121.109 17.3351 121.396L25.8517 117.177Z" fill="white"/>
<path d="M18.3736 68.1765C20.6716 68.3436 22.6695 68.9595 24.3674 70.0242C26.0653 71.0888 27.363 72.5093 28.2605 74.2858C29.1367 76.0607 29.4905 78.1077 29.3219 80.4269C29.1547 82.7249 28.5222 84.6574 27.4243 86.2246C26.3264 87.7917 24.8832 88.9595 23.0948 89.7277C21.3079 90.4748 19.3187 90.7686 17.1271 90.6092C14.8505 90.4436 12.8632 89.8285 11.1653 88.7639C9.44609 87.6977 8.14838 86.2771 7.27215 84.5022C6.37619 82.7045 6.01178 80.6567 6.1789 78.3588C6.34448 76.0821 6.97623 74.1602 8.07413 72.593C9.17203 71.0259 10.6152 69.8582 12.4036 69.0899C14.1708 68.32 16.1608 68.0156 18.3736 68.1765ZM18.405 72.1573C17.107 72.0629 15.8318 72.0985 14.5791 72.264C13.3265 72.4296 12.1793 72.7633 11.1375 73.265C10.0972 73.7455 9.25655 74.4223 8.61553 75.2954C7.95323 76.167 7.57411 77.2624 7.47816 78.5816C7.38067 79.9221 7.59576 81.082 8.12343 82.0616C8.65265 83.0198 9.38575 83.8218 10.3227 84.4674C11.2612 85.0918 12.3268 85.5864 13.5195 85.9512C14.7137 86.2948 15.9385 86.5122 17.1939 86.6035C18.4279 86.6932 19.6713 86.6553 20.9239 86.4897C22.1569 86.3014 23.2942 85.9563 24.336 85.4545C25.3778 84.9528 26.2413 84.2562 26.9264 83.3649C27.5918 82.4508 27.9733 81.3235 28.0708 79.983C28.1667 78.6638 27.9599 77.5365 27.4504 76.6011C26.9425 75.6444 26.2299 74.8546 25.3127 74.2318C24.3742 73.6074 23.307 73.1341 22.1112 72.8118C20.917 72.4683 19.6816 72.2501 18.405 72.1573Z" fill="white"/>
<path d="M37.1348 55.5484C37.1235 55.5664 36.9184 55.8534 36.5197 56.4091C36.1503 56.9581 35.6701 57.5635 35.079 58.2252C34.5853 58.7718 34.1617 59.2868 33.8083 59.7702C33.4481 60.2243 33.234 60.5055 33.166 60.614C31.6545 59.6916 29.7869 58.6341 27.5634 57.4416C27.636 57.2857 27.7176 57.1354 27.8082 56.9908C27.9102 56.8281 28.0009 56.6835 28.0802 56.557C29.8861 57.2107 31.4721 57.4119 32.8383 57.1605C34.2159 56.891 35.3182 56.0965 36.1454 54.777C36.8819 53.6022 37.1662 52.4459 36.9981 51.3082C36.812 50.1592 36.1948 49.2561 35.1464 48.5989C34.3511 48.1003 33.5701 47.9002 32.8034 47.9987C32.048 48.079 31.2889 48.346 30.5262 48.7995C29.7568 49.2235 28.9862 49.7098 28.2143 50.2582C27.2908 50.8879 26.3719 51.4701 25.4576 52.0048C24.5365 52.51 23.583 52.8061 22.5969 52.8929C21.6109 52.9798 20.5846 52.6889 19.5182 52.0204C18.3794 51.3065 17.579 50.4145 17.1169 49.3442C16.6661 48.2559 16.5332 47.1024 16.718 45.8838C16.8848 44.6539 17.3307 43.4605 18.0559 42.3037C18.2826 41.9422 18.5329 41.583 18.8071 41.2261C19.0925 40.8511 19.4017 40.4784 19.7346 40.108C20.1355 39.6292 20.43 39.2598 20.618 39C20.8174 38.7222 20.9454 38.538 21.0021 38.4477C21.0361 38.3934 21.0984 38.294 21.1891 38.1494C21.2616 37.9935 21.3172 37.8647 21.3558 37.763C22.1738 38.2254 23.0188 38.7048 23.891 39.2012C24.7632 39.6977 25.6829 40.1987 26.6501 40.7043C26.4777 41.0998 26.3088 41.4093 26.1434 41.633C24.3102 41.0629 22.8576 40.8698 21.7855 41.0538C20.6953 41.2264 19.7932 41.8821 19.0794 43.0208C18.4561 44.015 18.1947 45.0345 18.295 46.0793C18.3773 47.1129 18.9426 47.9583 19.9909 48.6155C20.5513 48.9667 21.1277 49.1518 21.7201 49.1707C22.3239 49.1716 23.0172 48.9893 23.8001 48.6241C24.5831 48.2588 25.5404 47.6756 26.6722 46.8743C27.2992 46.4365 27.9533 46.0156 28.6345 45.6118C29.327 45.1899 30.0488 44.8618 30.7999 44.6277C31.5329 44.3822 32.303 44.2985 33.1102 44.3764C33.8993 44.4431 34.7096 44.737 35.5411 45.2583C36.7702 46.0288 37.6259 46.9933 38.1083 48.1518C38.5725 49.2989 38.7133 50.5202 38.5306 51.8157C38.3593 53.0931 37.894 54.3373 37.1348 55.5484Z" fill="white"/>
<path d="M56.316 30.5869L54.3234 11.867C54.731 11.6797 55.1525 11.4731 55.5881 11.2473C56.0237 11.0214 56.393 10.8299 56.696 10.6728C56.8476 10.5943 57.1222 10.4519 57.5199 10.2457C57.9267 10.0107 58.3669 9.77045 58.8404 9.52496C59.3328 9.26964 59.7778 9.03888 60.1755 8.83266C60.5824 8.59768 60.8616 8.44092 61.0131 8.36236C61.2172 8.61698 61.3694 8.91053 61.4697 9.24302L61.4129 9.27248C60.5908 9.81888 60.0054 10.2425 59.6568 10.5435C59.2984 10.8254 59.1504 11.1425 59.2128 11.4946C59.2843 11.818 59.492 12.3111 59.8356 12.9739L66.9417 26.1228C67.2461 26.7099 67.5057 27.1641 67.7203 27.4853C67.9349 27.8066 68.1667 27.9988 68.4158 28.0619C68.6648 28.1251 68.9983 28.0963 69.4164 27.9757C69.8246 27.8361 70.3938 27.613 71.124 27.3065C71.3281 27.5611 71.4803 27.8547 71.5806 28.1872C71.4291 28.2657 71.1401 28.4036 70.7137 28.6007C70.3159 28.8069 69.8709 29.0376 69.3785 29.293C68.905 29.5385 68.4599 29.7692 68.0433 29.9853C67.6357 30.1725 67.3562 30.3055 67.2047 30.384C67.0532 30.4626 66.7835 30.6144 66.3956 30.8396C65.9979 31.0458 65.5623 31.2717 65.0888 31.5172C64.6153 31.7627 64.1797 31.9885 63.782 32.1947C63.3941 32.4199 63.1244 32.5717 62.9729 32.6503C62.8067 32.376 62.6545 32.0825 62.5163 31.7696L62.5731 31.7402C63.3573 31.2134 63.9192 30.814 64.2587 30.5418C64.5883 30.2507 64.7174 29.9435 64.6459 29.6201C64.5834 29.268 64.3804 28.7605 64.0367 28.0976L55.8859 13.0033L58.2277 35.0386C58.1246 35.1642 57.9359 35.3101 57.6616 35.4763C57.3873 35.6425 57.146 35.7797 56.9377 35.8877L40.9399 21.5098L48.0712 36.3758C48.3763 37.0106 48.6404 37.4504 48.8635 37.6952C49.0767 37.9211 49.4022 37.9926 49.8399 37.9098C50.2776 37.8271 50.9709 37.6117 51.92 37.2638C52.1528 37.5276 52.3051 37.8211 52.3766 38.1445C52.1872 38.2427 51.8509 38.4051 51.3676 38.6316C50.913 38.8673 50.449 39.1079 49.9756 39.3534C49.5112 39.5701 49.1749 39.7325 48.9665 39.8405C48.8529 39.8995 48.6306 40.0268 48.2995 40.2225C47.9775 40.3894 47.6177 40.576 47.22 40.7822C46.8222 40.9884 46.4529 41.1799 46.112 41.3566C45.7999 41.5425 45.587 41.6649 45.4734 41.7238C45.2784 41.4405 45.1262 41.1469 45.0167 40.8432C45.848 40.268 46.4235 39.8254 46.7433 39.5154C47.0632 39.2054 47.1821 38.8553 47.1 38.4653C47.0369 38.0655 46.8233 37.4914 46.4593 36.743L40.1203 23.1964C39.8144 22.5139 39.5405 22.0552 39.2985 21.8202C39.0565 21.5852 38.7027 21.5284 38.2369 21.6497C37.7803 21.7423 37.0683 21.9913 36.101 22.3967C35.925 22.1035 35.7728 21.81 35.6444 21.516C36.2883 21.1822 36.9561 20.8479 37.6477 20.5134C38.3394 20.1788 39.1018 19.7955 39.9351 19.3634C40.2192 19.2161 40.598 19.0197 41.0715 18.7742C41.5449 18.5287 41.9756 18.2934 42.3635 18.0682L56.316 30.5869Z" fill="white"/>
<path d="M77.2979 27.84C77.2862 27.4962 77.317 27.1563 77.3902 26.8202C77.9909 26.8103 78.4757 26.7792 78.8445 26.7269C79.2134 26.6746 79.535 26.5538 79.8091 26.3644C80.0853 26.1537 80.3604 25.8359 80.6344 25.4109C80.9105 24.9646 81.2453 24.3416 81.639 23.5418L90.1207 6.50894C90.3621 6.4451 90.6441 6.40636 90.9666 6.39271C91.3104 6.38098 91.5991 6.38569 91.8329 6.40684L97.038 25.2246C97.2662 26.0164 97.4558 26.644 97.6066 27.1075C97.7594 27.5497 97.944 27.877 98.1604 28.0894C98.3768 28.3018 98.6617 28.4668 99.0152 28.5845C99.3706 28.6809 99.8642 28.7898 100.496 28.9112C100.508 29.255 100.477 29.595 100.403 29.9311C99.6599 29.8638 98.896 29.7839 98.1118 29.6915C97.3276 29.5991 96.5424 29.5174 95.7563 29.4462C94.9489 29.3732 94.13 29.3098 93.2994 29.256C92.4901 29.2042 91.6818 29.1418 90.8744 29.0687C90.8395 28.7442 90.8703 28.4043 90.9667 28.0489C92.0174 28.0368 92.7485 28.0066 93.1598 27.9582C93.5731 27.8885 93.798 27.6518 93.8346 27.2481C93.85 27.0781 93.8354 26.884 93.7909 26.6658C93.7464 26.4475 93.6854 26.1743 93.608 25.846L92.2356 20.7736L85.0649 20.1247L83.0734 24.3785C82.8882 24.7687 82.7405 25.0981 82.6306 25.3666C82.5437 25.6158 82.4907 25.8466 82.4715 26.0591C82.4292 26.5265 82.6147 26.8432 83.0281 27.0091C83.4647 27.1557 84.1775 27.3273 85.1664 27.5239C85.1762 27.889 85.1455 28.2289 85.0741 28.5438C84.3518 28.4784 83.641 28.4034 82.9418 28.3187C82.2425 28.234 81.5317 28.1589 80.8094 28.0936C80.2145 28.0397 79.6398 27.9984 79.0855 27.9697C78.5312 27.9409 77.9353 27.8977 77.2979 27.84ZM85.6641 18.8294L91.8787 19.3918L89.5227 10.6318L85.6641 18.8294Z" fill="white"/>
<path d="M117.9 27.8396L117.26 27.2991L113.806 32.4958C113.44 33.0465 113.169 33.4936 112.991 33.837C112.814 34.1804 112.75 34.4705 112.797 34.7071C112.863 34.9555 113.041 35.2274 113.331 35.5229C113.651 35.8123 114.104 36.1904 114.69 36.657C114.555 36.9767 114.366 37.261 114.124 37.5098C113.768 37.2736 113.348 36.9813 112.862 36.6329C112.365 36.3022 111.867 35.9716 111.37 35.6409C110.884 35.2925 110.473 35.0061 110.135 34.7817C109.815 34.5691 109.392 34.3005 108.865 33.9758C108.349 33.6333 107.834 33.2908 107.319 32.9484C106.792 32.6237 106.351 32.3432 105.995 32.107C106.119 31.8051 106.308 31.5208 106.562 31.2542C107.462 31.75 108.123 32.0864 108.543 32.2633C108.975 32.4225 109.324 32.3983 109.59 32.1909C109.868 31.9657 110.219 31.5333 110.644 30.8937L118.899 18.4749C119.383 17.7465 119.679 17.1869 119.784 16.7963C119.908 16.4174 119.819 16.0507 119.517 15.6961C119.215 15.3415 118.664 14.8601 117.864 14.2517C117.988 13.9498 118.177 13.6655 118.431 13.3989C118.768 13.6233 119.198 13.9215 119.719 14.2936C120.27 14.6597 120.797 15.0228 121.3 15.3831C121.833 15.7374 122.224 15.9972 122.473 16.1625C122.793 16.3751 123.201 16.6467 123.699 16.9773C124.226 17.3021 124.744 17.6209 125.253 17.9338C125.78 18.2585 126.186 18.5153 126.47 18.7042C127.589 19.4482 128.528 20.2901 129.287 21.2298C130.063 22.1814 130.514 23.1985 130.64 24.2811C130.796 25.3577 130.489 26.4734 129.722 27.6283C128.966 28.7653 127.946 29.5477 126.663 29.9755C125.397 30.415 123.88 30.3668 122.11 29.8308L122.057 29.9107C122.181 30.3011 122.247 30.8572 122.254 31.579L122.36 37.4897C122.385 38.4541 122.424 39.2233 122.478 39.7971C122.55 40.3828 122.663 40.8678 122.818 41.2522C122.984 41.6188 123.23 41.9617 123.556 42.2807C123.881 42.5998 124.311 42.9749 124.844 43.4061C124.708 43.7258 124.519 44.0101 124.277 44.2589C123.94 44.0345 123.528 43.7481 123.042 43.3997C122.545 43.069 122.065 42.7502 121.603 42.4431C121.153 42.1183 120.786 41.8614 120.502 41.6725C120.217 41.4835 119.963 41.3271 119.738 41.2031C119.525 41.0614 119.276 40.8961 118.992 40.7071L118.897 30.1547C118.902 29.492 118.831 29.0217 118.682 28.7438C118.546 28.4481 118.285 28.1467 117.9 27.8396ZM117.987 26.2064C118.194 26.3955 118.381 26.558 118.547 26.6938C118.712 26.8297 118.875 26.9508 119.035 27.057C120.421 27.9782 121.75 28.3491 123.022 28.1699C124.311 28.0025 125.417 27.2259 126.338 25.8401C127.176 24.5787 127.465 23.3742 127.203 22.2267C126.959 21.091 126.152 20.0685 124.784 19.1592C124.607 19.0411 124.379 18.9023 124.101 18.743C123.84 18.5954 123.556 18.4449 123.248 18.2915L117.987 26.2064Z" fill="white"/>
<path d="M147.227 44.8926L134.765 53.0225C134.211 53.3839 133.785 53.6873 133.486 53.9328C133.188 54.1784 133.02 54.4282 132.982 54.6822C132.944 54.9363 133.006 55.2653 133.167 55.6693C133.347 56.0616 133.625 56.6058 134.003 57.3019C133.752 57.542 133.466 57.7285 133.145 57.8614C132.912 57.504 132.636 57.0604 132.316 56.5306C131.978 56.0124 131.64 55.4943 131.302 54.9761C130.993 54.4642 130.728 54.0384 130.507 53.6989C130.285 53.3595 129.996 52.9365 129.641 52.43C129.314 51.9297 128.982 51.4204 128.644 50.9023C128.3 50.4136 127.999 49.9728 127.743 49.5797C127.976 49.3512 128.262 49.1647 128.601 49.0202C129.249 49.8196 129.732 50.3836 130.048 50.7122C130.382 51.0291 130.713 51.1448 131.039 51.0593C131.365 50.9738 131.85 50.7213 132.493 50.3017L144.956 42.1718C145.706 41.6822 146.213 41.2879 146.477 40.9887C146.74 40.6896 146.794 40.3233 146.638 39.8898C146.501 39.4446 146.188 38.7699 145.7 37.8656C145.945 37.6551 146.231 37.4686 146.558 37.3062C146.802 37.6814 147.085 38.1339 147.405 38.6637C147.755 39.1998 148.09 39.7327 148.41 40.2625C148.748 40.7807 149.028 41.2095 149.249 41.549C149.47 41.8885 149.744 42.3083 150.071 42.8086C150.415 43.2973 150.756 43.8007 151.094 44.3188C151.45 44.8254 151.739 45.2483 151.96 45.5878C151.727 45.8163 151.441 46.0028 151.102 46.1473C150.483 45.3542 150.007 44.7991 149.672 44.4822C149.338 44.1652 149.008 44.0495 148.682 44.135C148.355 44.2205 147.871 44.473 147.227 44.8926Z" fill="white"/>
<path d="M136.453 62.42C136.781 62.3166 137.117 62.2552 137.46 62.2358C137.631 62.8119 137.791 63.2706 137.94 63.612C138.089 63.9534 138.292 64.2308 138.548 64.4442C138.824 64.6538 139.204 64.8338 139.687 64.984C140.191 65.1304 140.881 65.2861 141.757 65.4512L160.44 69.0609C160.566 69.2764 160.679 69.5377 160.778 69.8448C160.881 70.1729 160.954 70.4523 160.996 70.6832L144.261 80.7383C143.559 81.1703 143.005 81.521 142.599 81.7904C142.214 82.0561 141.948 82.3216 141.801 82.587C141.654 82.8523 141.572 83.1711 141.553 83.5432C141.555 83.9114 141.583 84.4161 141.635 85.0572C141.307 85.1606 140.971 85.222 140.627 85.2414C140.493 84.5069 140.365 83.7495 140.244 82.9693C140.123 82.189 139.992 81.4106 139.85 80.6341C139.704 79.8367 139.546 79.0307 139.375 78.2161C139.208 77.4225 139.052 76.627 138.906 75.8296C139.209 75.709 139.545 75.6476 139.913 75.6453C140.206 76.6544 140.431 77.3506 140.588 77.734C140.766 78.1135 141.054 78.2668 141.453 78.1939C141.621 78.1632 141.804 78.0972 142.002 77.9958C142.201 77.8945 142.448 77.7626 142.743 77.6001L147.263 74.9192L145.967 67.8367L141.335 67.0573C140.91 66.9834 140.553 66.9294 140.265 66.8953C140.001 66.8784 139.765 66.8892 139.555 66.9275C139.093 67.012 138.838 67.2756 138.789 67.7183C138.764 68.1782 138.79 68.9109 138.865 69.9164C138.516 70.0236 138.181 70.085 137.858 70.1006C137.728 69.3871 137.609 68.6822 137.504 67.9858C137.398 67.2895 137.28 66.5846 137.149 65.8711C137.042 65.2835 136.928 64.7188 136.807 64.177C136.686 63.6352 136.568 63.0496 136.453 62.42ZM147.376 68.0671L148.498 74.2053L156.307 69.589L147.376 68.0671Z" fill="white"/>
<path d="M133.785 109.058L156.17 101.923L143.27 97.3225C142.507 97.0502 141.907 96.8589 141.47 96.7486C141.054 96.6455 140.7 96.655 140.407 96.7771C140.134 96.9064 139.853 97.1569 139.561 97.5287C139.27 97.9005 138.945 98.4639 138.585 99.2189C138.249 99.1445 137.928 99.0298 137.62 98.875C137.835 98.2722 138.086 97.6026 138.371 96.8663C138.649 96.1501 138.877 95.5408 139.057 95.0385C139.236 94.5361 139.448 93.9096 139.693 93.159C139.931 92.4285 140.154 91.7718 140.361 91.1891C140.684 91.2363 141.006 91.351 141.326 91.5331C141.168 92.2923 141.058 92.8871 140.995 93.3177C140.952 93.7554 140.989 94.0969 141.105 94.3422C141.242 94.5947 141.494 94.8092 141.861 94.9855C142.222 95.1819 142.743 95.402 143.427 95.6456L155.784 100.053C156.588 100.339 157.232 100.535 157.715 100.639C158.192 100.764 158.58 100.755 158.88 100.613C159.193 100.498 159.478 100.237 159.736 99.8312C160.007 99.4522 160.319 98.8952 160.672 98.1603C160.98 98.2477 161.292 98.3588 161.606 98.4936C161.384 99.1165 161.138 99.776 160.867 100.472C160.596 101.168 160.335 101.868 160.084 102.571C160.048 102.672 159.952 102.943 159.794 103.385C159.629 103.847 159.496 104.253 159.394 104.601L138.935 111.099L150.509 115.226C151.272 115.498 151.872 115.69 152.309 115.8C152.738 115.93 153.092 115.921 153.372 115.772C153.965 115.507 154.608 114.593 155.302 113.028C155.665 113.09 155.986 113.205 156.266 113.372C156.13 113.754 155.959 114.203 155.752 114.718C155.559 115.26 155.362 115.779 155.163 116.274C154.984 116.777 154.837 117.189 154.722 117.51C154.543 118.013 154.331 118.639 154.086 119.39C153.841 120.14 153.615 120.807 153.407 121.39C153.091 121.322 152.78 121.211 152.473 121.057C152.696 120.049 152.802 119.306 152.792 118.826C152.802 118.354 152.624 117.996 152.258 117.752C151.892 117.509 151.257 117.226 150.352 116.903L133.323 110.83C133.354 110.615 133.421 110.333 133.523 109.984C133.604 109.628 133.692 109.32 133.785 109.058Z" fill="white"/>
<path d="M116.809 143.268C115.381 141.46 114.486 139.571 114.125 137.6C113.764 135.628 113.935 133.712 114.64 131.85C115.357 130.006 116.628 128.363 118.453 126.921C120.261 125.493 122.113 124.654 124.011 124.406C125.908 124.158 127.744 124.434 129.518 125.234C131.276 126.048 132.835 127.316 134.198 129.041C135.613 130.832 136.501 132.713 136.862 134.684C137.237 136.672 137.065 138.589 136.347 140.433C135.626 142.308 134.362 143.96 132.554 145.388C130.763 146.803 128.919 147.635 127.022 147.883C125.124 148.132 123.289 147.855 121.514 147.055C119.753 146.271 118.185 145.009 116.809 143.268ZM119.725 140.557C120.531 141.578 121.419 142.495 122.387 143.307C123.355 144.119 124.375 144.74 125.449 145.17C126.506 145.613 127.572 145.776 128.649 145.659C129.739 145.559 130.803 145.099 131.841 144.279C132.896 143.446 133.606 142.504 133.972 141.453C134.322 140.416 134.418 139.334 134.262 138.207C134.089 137.093 133.734 135.973 133.198 134.847C132.645 133.734 131.978 132.684 131.198 131.696C130.431 130.725 129.563 129.834 128.595 129.022C127.624 128.239 126.601 127.633 125.528 127.204C124.454 126.774 123.358 126.608 122.238 126.704C121.114 126.83 120.025 127.31 118.97 128.144C117.932 128.963 117.241 129.877 116.895 130.885C116.532 131.905 116.431 132.964 116.59 134.061C116.764 135.175 117.135 136.282 117.705 137.381C118.258 138.494 118.931 139.553 119.725 140.557Z" fill="white"/>
</svg>
