<svg width="29" height="29" viewBox="0 0 29 29" fill="none" xmlns="http://www.w3.org/2000/svg"> <path d="M25.4516 5.70312H4.16129C3.69075 5.70313 3.23948 5.89005 2.90675 6.22277C2.57402 6.5555 2.3871 7.00677 2.3871 7.47732V21.6709C2.3871 22.1414 2.57402 22.5927 2.90675 22.9254C3.23948 23.2581 3.69075 23.4451 4.16129 23.4451H25.4516C25.9222 23.4451 26.3734 23.2581 26.7062 22.9254C27.0389 22.5927 27.2258 22.1414 27.2258 21.6709V7.47732C27.2258 7.00677 27.0389 6.5555 26.7062 6.22277C26.3734 5.89005 25.9222 5.70313 25.4516 5.70312V5.70312ZM23.5 7.47732L14.8065 13.4918L6.11291 7.47732H23.5ZM4.16129 21.6709V8.28458L14.3008 15.3015C14.4493 15.4045 14.6257 15.4597 14.8065 15.4597C14.9872 15.4597 15.1636 15.4045 15.3121 15.3015L25.4516 8.28458V21.6709H4.16129Z" fill="white"/> </svg>