<svg width="145" height="34" viewBox="0 0 145 34" fill="none" xmlns="http://www.w3.org/2000/svg">
<path d="M62.3083 12.3317C63.8657 12.3317 65.101 12.8034 66.0145 13.7468C66.9429 14.6902 67.4071 16.0004 67.4071 17.6775V25H63.5886V18.1942C63.5886 17.3855 63.3715 16.7641 62.9373 16.3298C62.518 15.8806 61.934 15.656 61.1853 15.656C60.4365 15.656 59.845 15.8806 59.4108 16.3298C58.9915 16.7641 58.7819 17.3855 58.7819 18.1942V25H54.9634V18.1942C54.9634 17.3855 54.7463 16.7641 54.312 16.3298C53.8927 15.8806 53.3087 15.656 52.56 15.656C51.8113 15.656 51.2198 15.8806 50.7856 16.3298C50.3663 16.7641 50.1566 17.3855 50.1566 18.1942V25H46.3157V12.4665H50.1566V14.0388C50.546 13.5147 51.0551 13.1029 51.684 12.8034C52.3129 12.4889 53.0242 12.3317 53.8179 12.3317C54.7613 12.3317 55.5998 12.5338 56.3336 12.9382C57.0823 13.3425 57.6663 13.919 58.0856 14.6677C58.5198 13.9789 59.1113 13.4173 59.86 12.9831C60.6087 12.5488 61.4248 12.3317 62.3083 12.3317ZM69.3297 18.7108C69.3297 17.423 69.5693 16.2924 70.0484 15.3191C70.5426 14.3457 71.2089 13.597 72.0475 13.0729C72.8861 12.5488 73.822 12.2868 74.8552 12.2868C75.7387 12.2868 76.5099 12.4665 77.1687 12.8258C77.8426 13.1852 78.3592 13.6569 78.7186 14.2409V12.4665H82.5595V25H78.7186V23.2255C78.3442 23.8095 77.8201 24.2812 77.1463 24.6406C76.4874 25 75.7162 25.1797 74.8327 25.1797C73.8145 25.1797 72.8861 24.9176 72.0475 24.3935C71.2089 23.8545 70.5426 23.0983 70.0484 22.1249C69.5693 21.1366 69.3297 19.9986 69.3297 18.7108ZM78.7186 18.7332C78.7186 17.7749 78.449 17.0187 77.91 16.4646C77.3859 15.9106 76.742 15.6335 75.9783 15.6335C75.2146 15.6335 74.5632 15.9106 74.0241 16.4646C73.5 17.0037 73.238 17.7524 73.238 18.7108C73.238 19.6691 73.5 20.4328 74.0241 21.0018C74.5632 21.5559 75.2146 21.8329 75.9783 21.8329C76.742 21.8329 77.3859 21.5559 77.91 21.0018C78.449 20.4478 78.7186 19.6916 78.7186 18.7332ZM89.1792 14.5554C89.6284 13.8666 90.1899 13.3275 90.8638 12.9382C91.5376 12.5338 92.2864 12.3317 93.1099 12.3317V16.3972H92.0542C91.0959 16.3972 90.3771 16.6069 89.8979 17.0262C89.4188 17.4305 89.1792 18.1492 89.1792 19.1825V25H85.3382V12.4665H89.1792V14.5554ZM96.8775 11.1637C96.2037 11.1637 95.6496 10.969 95.2154 10.5797C94.7961 10.1754 94.5864 9.68123 94.5864 9.09723C94.5864 8.49826 94.7961 8.0041 95.2154 7.61477C95.6496 7.21046 96.2037 7.00831 96.8775 7.00831C97.5364 7.00831 98.0755 7.21046 98.4947 7.61477C98.929 8.0041 99.1461 8.49826 99.1461 9.09723C99.1461 9.68123 98.929 10.1754 98.4947 10.5797C98.0755 10.969 97.5364 11.1637 96.8775 11.1637ZM98.7867 12.4665V25H94.9458V12.4665H98.7867ZM100.807 18.7108C100.807 17.423 101.046 16.2924 101.525 15.3191C102.019 14.3457 102.686 13.597 103.524 13.0729C104.363 12.5488 105.299 12.2868 106.332 12.2868C107.216 12.2868 107.987 12.4665 108.646 12.8258C109.319 13.1852 109.836 13.6569 110.195 14.2409V12.4665H114.036V25H110.195V23.2255C109.821 23.8095 109.297 24.2812 108.623 24.6406C107.964 25 107.193 25.1797 106.31 25.1797C105.291 25.1797 104.363 24.9176 103.524 24.3935C102.686 23.8545 102.019 23.0983 101.525 22.1249C101.046 21.1366 100.807 19.9986 100.807 18.7108ZM110.195 18.7332C110.195 17.7749 109.926 17.0187 109.387 16.4646C108.863 15.9106 108.219 15.6335 107.455 15.6335C106.691 15.6335 106.04 15.9106 105.501 16.4646C104.977 17.0037 104.715 17.7524 104.715 18.7108C104.715 19.6691 104.977 20.4328 105.501 21.0018C106.04 21.5559 106.691 21.8329 107.455 21.8329C108.219 21.8329 108.863 21.5559 109.387 21.0018C109.926 20.4478 110.195 19.6916 110.195 18.7332ZM124.452 12.3317C125.92 12.3317 127.088 12.8109 127.956 13.7692C128.84 14.7126 129.281 16.0154 129.281 17.6775V25H125.463V18.1942C125.463 17.3556 125.246 16.7042 124.811 16.24C124.377 15.7758 123.793 15.5437 123.059 15.5437C122.326 15.5437 121.742 15.7758 121.307 16.24C120.873 16.7042 120.656 17.3556 120.656 18.1942V25H116.815V12.4665H120.656V14.1286C121.045 13.5746 121.569 13.1403 122.228 12.8258C122.887 12.4964 123.628 12.3317 124.452 12.3317ZM137.656 25.1797C136.428 25.1797 135.32 24.9176 134.331 24.3935C133.358 23.8694 132.587 23.1207 132.018 22.1474C131.464 21.1741 131.187 20.036 131.187 18.7332C131.187 17.4454 131.471 16.3149 132.04 15.3415C132.609 14.3532 133.388 13.597 134.376 13.0729C135.364 12.5488 136.473 12.2868 137.7 12.2868C138.928 12.2868 140.036 12.5488 141.025 13.0729C142.013 13.597 142.792 14.3532 143.361 15.3415C143.93 16.3149 144.214 17.4454 144.214 18.7332C144.214 20.021 143.922 21.1591 143.338 22.1474C142.769 23.1207 141.983 23.8694 140.98 24.3935C139.992 24.9176 138.883 25.1797 137.656 25.1797ZM137.656 21.8554C138.389 21.8554 139.011 21.5858 139.52 21.0468C140.044 20.5077 140.306 19.7365 140.306 18.7332C140.306 17.7299 140.051 16.9588 139.542 16.4197C139.048 15.8806 138.434 15.6111 137.7 15.6111C136.952 15.6111 136.33 15.8806 135.836 16.4197C135.342 16.9438 135.095 17.715 135.095 18.7332C135.095 19.7365 135.335 20.5077 135.814 21.0468C136.308 21.5858 136.922 21.8554 137.656 21.8554Z" fill="#EE1C25"/>
<path d="M13.2074 18.5311C13.2074 18.8905 13.1849 19.2648 13.14 19.6542H4.44738C4.50728 20.4328 4.75436 21.0318 5.18862 21.4511C5.63785 21.8554 6.18441 22.0575 6.82831 22.0575C7.78667 22.0575 8.45303 21.6532 8.82738 20.8446H12.9154C12.7057 21.6682 12.3239 22.4094 11.7698 23.0683C11.2308 23.7272 10.5494 24.2438 9.72585 24.6182C8.90226 24.9925 7.98133 25.1797 6.96308 25.1797C5.73518 25.1797 4.64205 24.9176 3.68369 24.3935C2.72533 23.8694 1.97662 23.1207 1.43754 22.1474C0.898462 21.1741 0.628923 20.036 0.628923 18.7332C0.628923 17.4305 0.890974 16.2924 1.41508 15.3191C1.95415 14.3457 2.70287 13.597 3.66123 13.0729C4.61959 12.5488 5.72021 12.2868 6.96308 12.2868C8.176 12.2868 9.25415 12.5413 10.1975 13.0505C11.1409 13.5596 11.8747 14.2858 12.3988 15.2292C12.9378 16.1726 13.2074 17.2732 13.2074 18.5311ZM9.27662 17.5203C9.27662 16.8614 9.052 16.3373 8.60277 15.948C8.15354 15.5587 7.592 15.364 6.91815 15.364C6.27426 15.364 5.72769 15.5512 5.27846 15.9255C4.84421 16.2999 4.57467 16.8315 4.46985 17.5203H9.27662ZM19.0746 14.5554C19.5238 13.8666 20.0854 13.3275 20.7592 12.9382C21.433 12.5338 22.1818 12.3317 23.0054 12.3317V16.3972H21.9497C20.9913 16.3972 20.2725 16.6069 19.7934 17.0262C19.3142 17.4305 19.0746 18.1492 19.0746 19.1825V25H15.2337V12.4665H19.0746V14.5554ZM30.5465 25.1797C29.3186 25.1797 28.2105 24.9176 27.2222 24.3935C26.2488 23.8694 25.4776 23.1207 24.9086 22.1474C24.3546 21.1741 24.0775 20.036 24.0775 18.7332C24.0775 17.4454 24.3621 16.3149 24.9311 15.3415C25.5001 14.3532 26.2788 13.597 27.2671 13.0729C28.2554 12.5488 29.3635 12.2868 30.5914 12.2868C31.8193 12.2868 32.9274 12.5488 33.9157 13.0729C34.904 13.597 35.6827 14.3532 36.2517 15.3415C36.8207 16.3149 37.1052 17.4454 37.1052 18.7332C37.1052 20.021 36.8132 21.1591 36.2292 22.1474C35.6602 23.1207 34.8741 23.8694 33.8708 24.3935C32.8825 24.9176 31.7744 25.1797 30.5465 25.1797ZM30.5465 21.8554C31.2802 21.8554 31.9016 21.5858 32.4108 21.0468C32.9349 20.5077 33.1969 19.7365 33.1969 18.7332C33.1969 17.7299 32.9424 16.9588 32.4332 16.4197C31.9391 15.8806 31.3251 15.6111 30.5914 15.6111C29.8427 15.6111 29.2212 15.8806 28.7271 16.4197C28.2329 16.9438 27.9858 17.715 27.9858 18.7332C27.9858 19.7365 28.2254 20.5077 28.7046 21.0468C29.1988 21.5858 29.8127 21.8554 30.5465 21.8554ZM44.2417 25.1797C43.1486 25.1797 42.1752 24.9925 41.3217 24.6182C40.4681 24.2438 39.7943 23.7347 39.3001 23.0908C38.806 22.4319 38.529 21.6982 38.4691 20.8895H42.2651C42.31 21.3238 42.5121 21.6757 42.8715 21.9452C43.2309 22.2148 43.6727 22.3495 44.1968 22.3495C44.6759 22.3495 45.0428 22.2597 45.2974 22.08C45.5669 21.8853 45.7017 21.6383 45.7017 21.3388C45.7017 20.9794 45.5145 20.7173 45.1401 20.5526C44.7658 20.3729 44.1593 20.1783 43.3208 19.9686C42.4223 19.759 41.6736 19.5418 41.0746 19.3172C40.4756 19.0776 39.959 18.7108 39.5248 18.2166C39.0905 17.7075 38.8734 17.0262 38.8734 16.1726C38.8734 15.4538 39.068 14.8025 39.4574 14.2185C39.8617 13.6195 40.4457 13.1478 41.2094 12.8034C41.988 12.459 42.909 12.2868 43.9721 12.2868C45.5445 12.2868 46.7798 12.6761 47.6783 13.4548C48.5917 14.2334 49.1158 15.2667 49.2506 16.5545H45.7017C45.6418 16.1202 45.4471 15.7758 45.1177 15.5212C44.8032 15.2667 44.3839 15.1394 43.8598 15.1394C43.4106 15.1394 43.0662 15.2292 42.8266 15.4089C42.587 15.5736 42.4672 15.8057 42.4672 16.1052C42.4672 16.4646 42.6544 16.7342 43.0288 16.9138C43.4181 17.0935 44.0171 17.2732 44.8257 17.4529C45.7541 17.6925 46.5103 17.9321 47.0943 18.1717C47.6783 18.3963 48.1874 18.7707 48.6217 19.2948C49.0709 19.8039 49.303 20.4927 49.318 21.3612C49.318 22.095 49.1083 22.7538 48.6891 23.3378C48.2848 23.9069 47.6933 24.3561 46.9146 24.6855C46.1509 25.015 45.2599 25.1797 44.2417 25.1797Z" fill="white"/>
</svg>
